<svg xmlns="http://www.w3.org/2000/svg" width="1400" height="760" viewBox="0 0 1400 760">
  <rect width="1400" height="760" fill="#f8fafc"/>
  <text x="700" y="58" text-anchor="middle" font-family="Arial, sans-serif" font-size="34" font-weight="700" fill="#0f172a">Hotel AI Concierge Automation</text>
  <text x="700" y="92" text-anchor="middle" font-family="Arial, sans-serif" font-size="18" fill="#475569">Modular multi-channel architecture</text>

  <g font-family="Arial, sans-serif">
    <rect x="70" y="180" rx="18" width="250" height="95" fill="#ffffff" stroke="#94a3b8" stroke-width="2"/>
    <text x="195" y="222" text-anchor="middle" font-size="22" font-weight="700" fill="#0f172a">Tally / Website</text>
    <text x="195" y="251" text-anchor="middle" font-size="16" fill="#475569">Structured guest intake</text>

    <rect x="70" y="330" rx="18" width="250" height="95" fill="#ffffff" stroke="#94a3b8" stroke-width="2"/>
    <text x="195" y="372" text-anchor="middle" font-size="22" font-weight="700" fill="#0f172a">Telegram</text>
    <text x="195" y="401" text-anchor="middle" font-size="16" fill="#475569">Interactive concierge</text>

    <rect x="70" y="480" rx="18" width="250" height="95" fill="#ffffff" stroke="#94a3b8" stroke-width="2"/>
    <text x="195" y="522" text-anchor="middle" font-size="22" font-weight="700" fill="#0f172a">Gmail</text>
    <text x="195" y="551" text-anchor="middle" font-size="16" fill="#475569">Email enquiries</text>

    <rect x="460" y="145" rx="22" width="380" height="470" fill="#ffffff" stroke="#334155" stroke-width="3"/>
    <text x="650" y="195" text-anchor="middle" font-size="26" font-weight="700" fill="#0f172a">n8n Automation Layer</text>

    <rect x="505" y="235" rx="14" width="290" height="80" fill="#f1f5f9" stroke="#94a3b8"/>
    <text x="650" y="271" text-anchor="middle" font-size="19" font-weight="700" fill="#0f172a">Website Workflow</text>
    <text x="650" y="297" text-anchor="middle" font-size="15" fill="#475569">Normalisation and routing</text>

    <rect x="505" y="345" rx="14" width="290" height="80" fill="#f1f5f9" stroke="#94a3b8"/>
    <text x="650" y="381" text-anchor="middle" font-size="19" font-weight="700" fill="#0f172a">Telegram Workflow</text>
    <text x="650" y="407" text-anchor="middle" font-size="15" fill="#475569">Session and booking state</text>

    <rect x="505" y="455" rx="14" width="290" height="80" fill="#f1f5f9" stroke="#94a3b8"/>
    <text x="650" y="491" text-anchor="middle" font-size="19" font-weight="700" fill="#0f172a">Email Workflow</text>
    <text x="650" y="517" text-anchor="middle" font-size="15" fill="#475569">Classification and response</text>

    <rect x="980" y="210" rx="18" width="300" height="105" fill="#ffffff" stroke="#94a3b8" stroke-width="2"/>
    <text x="1130" y="251" text-anchor="middle" font-size="22" font-weight="700" fill="#0f172a">Google Gemini</text>
    <text x="1130" y="280" text-anchor="middle" font-size="16" fill="#475569">Intent and reply generation</text>

    <rect x="980" y="385" rx="18" width="300" height="105" fill="#ffffff" stroke="#94a3b8" stroke-width="2"/>
    <text x="1130" y="426" text-anchor="middle" font-size="22" font-weight="700" fill="#0f172a">Google Sheets</text>
    <text x="1130" y="455" text-anchor="middle" font-size="16" fill="#475569">Shared operational records</text>

    <rect x="980" y="560" rx="18" width="300" height="105" fill="#ffffff" stroke="#94a3b8" stroke-width="2" stroke-dasharray="8 6"/>
    <text x="1130" y="601" text-anchor="middle" font-size="22" font-weight="700" fill="#0f172a">Future Integrations</text>
    <text x="1130" y="630" text-anchor="middle" font-size="16" fill="#475569">PMS · SMS · WhatsApp</text>

    <g stroke="#64748b" stroke-width="3" fill="none">
      <path d="M320 227 L460 275"/>
      <path d="M320 377 L460 385"/>
      <path d="M320 527 L460 495"/>
      <path d="M840 300 L980 262"/>
      <path d="M840 430 L980 438"/>
      <path d="M840 520 L980 610" stroke-dasharray="8 6"/>
    </g>

    <g fill="#64748b">
      <polygon points="458,275 444,268 447,283"/>
      <polygon points="458,385 444,378 444,393"/>
      <polygon points="458,495 444,488 447,503"/>
      <polygon points="978,262 963,258 968,273"/>
      <polygon points="978,438 963,431 963,446"/>
      <polygon points="978,610 963,603 963,618"/>
    </g>
  </g>
</svg>
